<?xml version="1.0" encoding="UTF-8"?>
<svg id="Layer_1" xmlns="http://www.w3.org/2000/svg" version="1.1" viewBox="0 0 1323.5 448.7">
  <!-- Generator: Adobe Illustrator 30.6.0, SVG Export Plug-In . SVG Version: 2.1.4 Build 109)  -->
  <defs>
    <style>
      .st0 {
        fill: #fff;
      }

      .st1 {
        fill: #f90;
      }
    </style>
  </defs>
  <path class="st1" d="M1196.7,358.9c22-1.1,41.9-13.6,53.6-32.3l67.9-128.3c7.1-11.4,7.1-25.9,0-37.2l-68.2-128.6c-11.7-18.7-31.5-31.2-53.6-32.3h-112.6c0,0-422.5.7-422.5.7H124.6C85.9.8,60.6,28.9,54.5,70.9c-6.1,42-42.1,288.8-42.1,288.8L0,440.6c0,7.9,10.2,11.2,14.8,4.7l61.2-77.5c4-5.1,10.1-8,16.5-8h568.7l422.8-.8h112.6Z"/>
  <g>
    <path class="st0" d="M375.6,267h-44.8V114.3h-14v-27.4h58.8v180.1Z"/>
    <g>
      <path class="st0" d="M883,266.9h-40.7V85.8h40.7v181.2Z"/>
      <g>
        <path class="st0" d="M217.4,266.2h-43.8V86.9h68c26,0,44.4,4.5,55.1,13.4,14,11.7,21,27.5,21,47.6s-6.3,34.9-18.8,46.5c-11.1,10.4-28.6,15.6-52.4,15.6h-29v56.2ZM217.4,127.5v41.9h27.9c19,0,28.5-6.9,28.5-20.8s-10.1-21.1-30.4-21.1h-26.1Z"/>
        <path class="st0" d="M734.8,266.2l-43.8-111.8v-67.5h68c26,0,44.4,4.5,55.1,13.4,14,11.7,21,27.5,21,47.6s-6.3,34.9-18.8,46.5c-11.1,10.4-28.6,15.6-52.4,15.6h-29v56.2ZM734.8,127.5v41.9h27.9c19,0,28.5-6.9,28.5-20.8s-10.1-21.1-30.4-21.1h-26.1Z"/>
        <path class="st0" d="M475.7,231.2c19,0,33.3-9.8,42.9-29.5h47.4c-5,20.9-15.8,37.8-32.3,50.6-16.6,12.8-35.7,19.2-57.4,19.2s-48.2-9-66.3-26.9c-18.1-17.9-27.2-39.8-27.2-65.7s9-47.5,26.9-65.2c17.9-17.7,39.9-26.6,66-26.6s60.7,14.3,78.8,42.9c6.2,9.8,10,19.2,11.4,28.2h-47.4c-3.6-9.5-9.2-17-16.9-22.6-7.7-5.5-16.5-8.3-26.2-8.3s-24.8,4.9-33.8,14.8c-9.1,9.9-13.6,22.2-13.6,36.8s4.6,27.3,13.7,37.3c9.1,10.1,20.5,15.1,33.9,15.1Z"/>
        <path class="st0" d="M677.4,267l-8.6-26.2h-62.7l-9.4,26.2h-49.4l72.1-180.1h36.5l71.6,180.1h-50ZM637.7,142.8l-18.9,61.6h37.5l-18.6-61.6Z"/>
        <path class="st0" d="M1001.2,131.1h38.3v135.8h-38.3v-14.7c-6.3,12.9-20.4,19.3-42.1,19.3s-37.1-6.7-49.8-20.1c-12.8-13.4-19.1-30.9-19.1-52.4s6.5-38.8,19.6-52.4c13-13.6,29.8-20.4,50.2-20.4s33.9,6.4,41.3,19.3v-14.4ZM964.5,164.5c-9.6,0-17.6,3.3-24,10-6.4,6.6-9.6,14.9-9.6,24.7s3.3,18,9.8,24.7c6.5,6.6,14.6,10,24.2,10s18.1-3.3,24.4-9.8c6.3-6.5,9.5-14.9,9.5-25.1s-3.2-18-9.6-24.5c-6.4-6.5-14.6-9.8-24.6-9.8Z"/>
        <path class="st0" d="M1117.3,209.9l26.3-78.8h43.2l-68.2,181.2h-42.9l21.5-52.2-50.5-129h43.2l27.4,78.8Z"/>
      </g>
    </g>
  </g>
</svg>