<?xml version="1.0" encoding="UTF-8"?>
<svg id="Layer_1" xmlns="http://www.w3.org/2000/svg" version="1.1" viewBox="0 0 829.5 281.3">
  <!-- Generator: Adobe Illustrator 30.6.0, SVG Export Plug-In . SVG Version: 2.1.4 Build 109)  -->
  <defs>
    <style>
      .st0 {
        fill: #fff;
      }

      .st1 {
        fill: #f90;
      }
    </style>
  </defs>
  <path class="st1" d="M750,224.9c13.8-.7,26.2-8.5,33.6-20.3l42.6-80.4c4.5-7.1,4.5-16.2,0-23.3l-42.7-80.6c-7.3-11.7-19.8-19.6-33.6-20.2h-70.6c0,0-264.8.4-264.8.4H78.1c-24.3,0-40.1,17.6-44,44-3.8,26.3-26.4,181-26.4,181l-7.8,50.7c0,5,6.4,7,9.3,2.9l38.4-48.6c2.5-3.2,6.3-5,10.4-5h356.5l265-.5h70.6Z"/>
  <g>
    <path class="st0" d="M235.4,167.4h-28.1v-95.7h-8.8v-17.2h36.9v112.9Z"/>
    <g>
      <path class="st0" d="M553.4,167.3h-25.5V53.8h25.5v113.5Z"/>
      <g>
        <path class="st0" d="M136.3,166.9h-27.5V54.5h42.6c16.3,0,27.8,2.8,34.5,8.4,8.8,7.3,13.1,17.2,13.1,29.8s-3.9,21.9-11.8,29.2c-7,6.5-17.9,9.8-32.9,9.8h-18.2v35.2ZM136.3,79.9v26.3h17.5c11.9,0,17.9-4.4,17.9-13.1s-6.3-13.2-19-13.2h-16.3Z"/>
        <path class="st0" d="M460.6,166.9l-27.5-70.1v-42.3h42.6c16.3,0,27.8,2.8,34.5,8.4,8.8,7.3,13.1,17.2,13.1,29.8s-3.9,21.9-11.8,29.2c-7,6.5-17.9,9.8-32.9,9.8h-18.2v35.2ZM460.6,79.9v26.3h17.5c11.9,0,17.9-4.4,17.9-13.1s-6.3-13.2-19-13.2h-16.3Z"/>
        <path class="st0" d="M298.1,144.9c11.9,0,20.9-6.2,26.9-18.5h29.7c-3.1,13.1-9.9,23.7-20.3,31.7-10.4,8-22.4,12-36,12s-30.2-5.6-41.5-16.9c-11.3-11.2-17-25-17-41.2s5.6-29.8,16.9-40.9c11.2-11.1,25-16.7,41.4-16.7s38,9,49.4,26.9c3.9,6.1,6.3,12,7.2,17.7h-29.7c-2.2-6-5.8-10.7-10.6-14.1-4.8-3.5-10.3-5.2-16.4-5.2s-15.5,3.1-21.2,9.3c-5.7,6.2-8.5,13.9-8.5,23.1s2.9,17.1,8.6,23.4c5.7,6.3,12.8,9.5,21.3,9.5Z"/>
        <path class="st0" d="M424.6,167.4l-5.4-16.4h-39.3l-5.9,16.4h-31l45.2-112.9h22.8l44.9,112.9h-31.3ZM399.7,89.5l-11.8,38.6h23.5l-11.7-38.6Z"/>
        <path class="st0" d="M627.5,82.2h24v85.1h-24v-9.2c-4,8.1-12.8,12.1-26.4,12.1s-23.2-4.2-31.2-12.6c-8-8.4-12-19.3-12-32.9s4.1-24.3,12.3-32.9c8.2-8.5,18.7-12.8,31.5-12.8s21.2,4,25.9,12.1v-9ZM604.5,103.1c-6,0-11,2.1-15.1,6.2-4,4.2-6,9.3-6,15.5s2,11.3,6.1,15.5c4.1,4.2,9.1,6.2,15.2,6.2s11.3-2.1,15.3-6.2c4-4.1,6-9.3,6-15.7s-2-11.3-6-15.4c-4-4.1-9.2-6.2-15.4-6.2Z"/>
        <path class="st0" d="M700.3,131.6l16.5-49.4h27.1l-42.7,113.5h-26.9l13.4-32.7-31.7-80.9h27.1l17.2,49.4Z"/>
      </g>
    </g>
  </g>
</svg>